<?xml version="1.0" encoding="UTF-8" standalone="no"?>
<!-- Created with Inkscape (http://www.inkscape.org/) -->

<svg
   width="210mm"
   height="297mm"
   viewBox="0 0 210 297"
   version="1.1"
   id="svg1"
   xml:space="preserve"
   inkscape:version="1.3.2 (091e20e, 2023-11-25, custom)"
   sodipodi:docname="LogoSVG.svg"
   xmlns:inkscape="http://www.inkscape.org/namespaces/inkscape"
   xmlns:sodipodi="http://sodipodi.sourceforge.net/DTD/sodipodi-0.dtd"
   xmlns="http://www.w3.org/2000/svg"
   xmlns:svg="http://www.w3.org/2000/svg"><sodipodi:namedview
     id="namedview1"
     pagecolor="#ffffff"
     bordercolor="#000000"
     borderopacity="0.25"
     inkscape:showpageshadow="2"
     inkscape:pageopacity="0.0"
     inkscape:pagecheckerboard="0"
     inkscape:deskcolor="#d1d1d1"
     inkscape:document-units="mm"
     inkscape:zoom="0.74564394"
     inkscape:cx="464.69901"
     inkscape:cy="554.55423"
     inkscape:window-width="1920"
     inkscape:window-height="1051"
     inkscape:window-x="-9"
     inkscape:window-y="-9"
     inkscape:window-maximized="1"
     inkscape:current-layer="layer1" /><defs
     id="defs1" /><g
     inkscape:label="Layer 1"
     inkscape:groupmode="layer"
     id="layer1"><path
       style="fill:#000000"
       d="m 65.052966,227.8917 c -0.0935,-0.18617 -0.25926,-0.50606 -0.36832,-0.71086 -0.10906,-0.20479 -0.76346,-1.4615 -1.45421,-2.79268 -0.69075,-1.33118 -1.64858,-3.17436 -2.12851,-4.09594 -0.47992,-0.92159 -1.27034,-2.44012 -1.75647,-3.3745 -0.48614,-0.93439 -1.0155,-1.95023 -1.17636,-2.25743 -0.16086,-0.30719 -0.84707,-1.62674 -1.5249,-2.93232 -0.67784,-1.30558 -1.6254,-3.12781 -2.1057,-4.04939 -0.4803,-0.92159 -1.28124,-2.46106 -1.77985,-3.42105 -0.49862,-0.95998 -1.02766,-1.97582 -1.17566,-2.25742 -0.14799,-0.2816 -0.82359,-1.5802 -1.50133,-2.88578 -0.67774,-1.30558 -1.62511,-3.12781 -2.10528,-4.04939 -0.48016,-0.92159 -1.28128,-2.46106 -1.78025,-3.42105 -0.49898,-0.95998 -1.02817,-1.97582 -1.17598,-2.25742 -0.14781,-0.2816 -0.82342,-1.5802 -1.50137,-2.88578 -0.67794,-1.30558 -1.62531,-3.12781 -2.10527,-4.04939 -0.47995,-0.92159 -1.28091,-2.46106 -1.77989,-3.42105 -0.49899,-0.95998 -1.02794,-1.97582 -1.17545,-2.25742 -0.14751,-0.2816 -0.83393,-1.60114 -1.52538,-2.93232 -0.69146,-1.33118 -1.63368,-3.14294 -2.09383,-4.02613 -0.46016,-0.88318 -1.2504,-2.40171 -1.75609,-3.37449 -0.87594,-1.68501 -1.1315,-2.17586 -1.81143,-3.47923 -0.1636,-0.31359 -0.70537,-1.35561 -1.20395,-2.3156 -0.49857,-0.95999 -1.29929,-2.49946 -1.77938,-3.42104 -0.48008,-0.92159 -1.28117,-2.46106 -1.78019,-3.42105 -0.86419,-1.66247 -1.11869,-2.15129 -1.7993,-3.45595 -0.1636,-0.31359 -0.70532,-1.35561 -1.20383,-2.3156 -0.49852,-0.95999 -1.43537,-2.76127 -2.0819,-4.00285 -0.64654,-1.24159 -1.44774,-2.78106 -1.78046,-3.42105 -0.65879,-1.26719 -1.06463,-2.04659 -1.47842,-2.83923 -0.14701,-0.28159 -0.57067,-1.09846 -0.94148,-1.81525 l -0.67418,-1.30325 -0.0526,-0.6754 c -0.54785,-7.0365 -0.90495,-14.12314 -1.07885,-21.41011 -0.0635,-2.65949 -0.0638,-10.23153 -6.3e-4,-12.823084 0.19411,-7.95792 0.69069,-14.89522 1.49596,-20.898606 1.60669,-11.978141 4.37042,-20.323421 8.30064,-25.064372 2.173,-2.621248 5.17578,-4.716951 8.82287,-6.157664 3.03666,-1.199573 6.84588,-2.009147 10.98458,-2.334551 3.15852,-0.248339 7.33059,-0.21417 11.21729,0.09187 5.89711,0.464337 13.08039,1.645757 20.4099,3.356775 0.81919,0.191234 1.59901,0.371726 1.73293,0.401094 l 0.2435,0.0534 0.32166,0.584019 c 0.3307,0.600437 2.15213,3.899162 3.02101,5.471222 0.26882,0.486393 0.6504,1.177583 0.84793,1.535978 0.19754,0.358395 0.90982,1.646522 1.58285,2.862505 0.67302,1.215983 1.44813,2.619308 1.72245,3.118501 0.27433,0.499193 0.88145,1.598814 1.34917,2.443602 0.46772,0.844788 1.01221,1.829211 1.20998,2.187606 0.19777,0.358395 0.58514,1.060057 0.86083,1.55925 0.27569,0.499193 0.66309,1.200856 0.8609,1.559251 1.06589,1.931219 1.82819,3.306402 1.84016,3.319638 0.007,0.0082 0.30353,-0.172103 0.65797,-0.400731 0.35443,-0.228629 2.3724,-1.521441 4.48437,-2.872916 2.11197,-1.351475 3.976094,-2.544876 4.142484,-2.652001 0.1664,-0.107125 0.54341,-0.347971 0.83781,-0.535212 0.2944,-0.187241 0.81802,-0.522855 1.16362,-0.745809 0.60368,-0.389454 2.23544,-1.433755 4.65448,-2.978805 1.03567,-0.661485 2.83181,-1.811929 5.95774,-3.815987 0.62719,-0.402097 1.78964,-1.146486 2.58323,-1.654198 4.71461,-3.016249 8.25416,-5.282308 9.21587,-5.900099 0.4608,-0.296007 1.21482,-0.778045 1.67562,-1.071194 0.46079,-0.293149 1.69655,-1.083667 2.74614,-1.756706 1.04958,-0.673039 2.4581,-1.575081 3.13002,-2.004537 l 1.22169,-0.78083 1.61755,-0.372394 c 5.73645,-1.320658 10.89007,-2.165744 15.9068,-2.608381 8.29643,-0.732015 15.40328,-0.182099 21.13134,1.635107 5.37421,1.704951 9.61274,4.568571 12.52537,8.46236 3.31452,4.431049 5.77045,11.348294 7.46119,21.014816 1.28899,7.369599 2.02892,15.679509 2.33952,26.274533 0.0638,2.17634 0.0807,10.53865 0.0262,12.98599 -0.0883,3.96703 -0.20985,7.27678 -0.40604,11.05439 -0.1287,2.47811 -0.33343,5.62997 -0.51336,7.9033 l -0.0914,1.1543 -0.65798,1.26603 c -0.36189,0.69631 -0.76267,1.465 -0.89062,1.7082 -0.12795,0.24319 -0.66179,1.26951 -1.18631,2.28069 -0.52451,1.01119 -1.07446,2.06892 -1.22211,2.35051 -0.14765,0.2816 -0.68174,1.30791 -1.18686,2.2807 -0.50512,0.97279 -1.03919,1.9991 -1.18682,2.28069 -0.23765,0.4533 -0.76198,1.462 -1.82666,3.51414 -0.17931,0.34559 -0.38345,0.73308 -0.45366,0.86107 -0.0702,0.128 -0.37404,0.71447 -0.67517,1.30326 -0.30113,0.58879 -0.60489,1.17526 -0.67502,1.30325 -0.0701,0.128 -0.29547,0.55738 -0.50077,0.95417 -0.58502,1.13071 -2.13448,4.11173 -2.43139,4.67775 -0.14771,0.2816 -0.54582,1.0461 -0.88469,1.69889 -1.18057,2.27424 -1.26995,2.44591 -1.46623,2.81596 -0.10863,0.2048 -0.38093,0.72843 -0.60511,1.16362 -0.43147,0.83761 -0.85546,1.65363 -1.25756,2.42033 -0.13426,0.25599 -0.66794,1.28231 -1.18595,2.28069 -0.51801,0.99839 -1.05193,2.0247 -1.18649,2.2807 -0.13457,0.25599 -0.53277,1.02049 -0.88489,1.69888 -0.35213,0.67839 -0.75003,1.44289 -0.88423,1.69889 -0.13419,0.25599 -0.67832,1.30325 -1.20917,2.32724 -0.53084,1.02398 -1.07566,2.07124 -1.21069,2.32724 -0.13503,0.25599 -0.6694,1.28231 -1.18748,2.28069 -0.51809,0.99839 -1.06256,2.04565 -1.20994,2.32724 -0.14737,0.2816 -0.53484,1.02515 -0.86105,1.65234 -0.3262,0.62719 -0.72441,1.39169 -0.8849,1.69889 -0.1605,0.30719 -0.83581,1.60579 -1.5007,2.88578 -1.48032,2.84977 -2.90143,5.58236 -3.29201,6.33009 -0.2947,0.56416 -1.20401,2.31097 -1.80508,3.46759 -0.1796,0.34559 -0.45748,0.87969 -0.61751,1.18689 -0.29943,0.57478 -1.38243,2.65722 -2.95314,5.67846 -0.49243,0.94719 -1.02684,1.9735 -1.18757,2.2807 -0.16074,0.30719 -0.70567,1.35445 -1.21097,2.32724 -0.5053,0.97278 -1.04992,2.02004 -1.21027,2.32724 -0.16035,0.30719 -0.70485,1.35445 -1.21001,2.32724 -0.50515,0.97278 -1.03956,1.9991 -1.18757,2.28069 -0.14801,0.2816 -0.67173,1.28697 -1.16382,2.23415 -0.4921,0.94719 -1.31246,2.52483 -1.82304,3.50586 -0.51057,0.98104 -1.10355,2.1221 -1.31774,2.53569 -0.21418,0.41359 -0.41017,0.7589 -0.43551,0.76735 -0.0253,0.008 -0.63935,-0.33461 -1.36445,-0.76236 -0.7251,-0.42775 -1.61159,-0.95001 -1.96998,-1.16058 -0.77552,-0.45566 -2.93173,-1.72641 -5.84138,-3.44258 -1.16478,-0.68702 -2.24779,-1.32425 -2.40669,-1.41607 -0.30406,-0.17569 -0.3719,-0.24201 -7.85643,-7.67977 -3.18533,-3.16542 -5.20397,-5.17063 -13.47473,-13.38515 -1.83037,-1.81792 -4.20125,-4.17304 -5.26862,-5.23359 l -1.94066,-1.92828 -0.22367,0.20115 c -0.12302,0.11064 -1.72124,1.69126 -3.55162,3.51251 -1.83037,1.82124 -6.333584,6.2947 -10.007134,9.94101 -3.67355,3.64631 -8.13487,8.07958 -9.91404,9.85171 -4.99488,4.97509 -4.91686,4.90151 -5.67162,5.34882 -0.59415,0.35212 -3.20776,1.89276 -8.73662,5.14995 -1.28142,0.75492 -2.37531,1.3969 -2.43085,1.42663 -0.0945,0.0506 -0.11188,0.0324 -0.27102,-0.28444 z m 6.31694,-23.33535 c 1.03392,-0.92363 2.0893,-1.86657 2.34529,-2.09542 0.256,-0.22886 1.05192,-0.93896 1.76871,-1.57801 0.71679,-0.63904 2.28894,-2.04196 3.49367,-3.11759 4.14328,-3.69925 6.60503,-5.89614 8.42417,-7.51778 0.61743,-0.55039 2.36705,-2.11153 3.88806,-3.46919 5.597,-4.99591 6.58535,-5.87787 11.238194,-10.02852 1.53512,-1.36943 2.95247,-2.64369 3.14967,-2.83169 0.24071,-0.22949 0.37838,-0.32964 0.4189,-0.30476 0.0332,0.0204 2.55284,2.27972 5.59919,5.02074 3.04636,2.74102 9.51842,8.56392 14.38235,12.93977 4.86393,4.37585 10.40055,9.35724 12.3036,11.06975 1.90304,1.71252 3.47631,3.09563 3.49614,3.07358 0.0198,-0.022 0.3559,-0.65796 0.74681,-1.41315 0.39092,-0.75519 0.81011,-1.56158 0.93153,-1.79198 0.21275,-0.40369 1.02767,-1.97009 2.96029,-5.6901 0.50206,-0.96638 1.05974,-2.03982 1.23928,-2.38542 0.17955,-0.34559 0.44689,-0.85875 0.59409,-1.14035 0.14721,-0.28159 0.55553,-1.06704 0.90739,-1.74543 0.35185,-0.67839 0.74995,-1.44289 0.88466,-1.69888 0.1347,-0.256 0.65826,-1.26137 1.16345,-2.23415 0.50519,-0.97279 1.03917,-1.9991 1.18663,-2.2807 0.23818,-0.45484 0.81413,-1.5627 1.82693,-3.51413 0.17936,-0.34559 0.44656,-0.85875 0.59376,-1.14035 0.14721,-0.28159 0.55547,-1.06704 0.90726,-1.74543 0.35179,-0.67839 0.7392,-1.42194 0.86091,-1.65234 0.12172,-0.23039 0.656,-1.25671 1.18728,-2.28069 0.53129,-1.02399 1.07564,-2.07124 1.20966,-2.32724 0.23956,-0.45756 1.16302,-2.23268 1.80394,-3.46759 0.17937,-0.34559 0.44656,-0.85875 0.59377,-1.14035 0.1472,-0.28159 0.55553,-1.06704 0.90738,-1.74543 0.35186,-0.67839 0.74995,-1.44288 0.88466,-1.69888 0.13471,-0.256 0.65821,-1.26137 1.16334,-2.23415 0.50513,-0.97279 1.04964,-2.02005 1.21002,-2.32724 0.16038,-0.3072 0.5584,-1.0717 0.88448,-1.69889 0.32608,-0.62719 0.72406,-1.39169 0.88441,-1.69888 0.16035,-0.3072 0.71509,-1.3754 1.23276,-2.37379 0.51766,-0.99838 1.05188,-2.02469 1.18714,-2.28069 0.13527,-0.256 0.66974,-1.28231 1.18773,-2.2807 0.51798,-0.99838 1.05156,-2.02469 1.18573,-2.28069 0.13418,-0.256 0.52159,-0.99955 0.86092,-1.65234 0.33932,-0.65279 0.74816,-1.43824 0.90852,-1.74543 0.16036,-0.3072 0.71519,-1.3754 1.23296,-2.37379 0.51776,-0.99838 1.0626,-2.04564 1.21075,-2.32724 0.14815,-0.28159 0.68262,-1.3079 1.18772,-2.28069 0.50509,-0.97279 1.02805,-1.97815 1.16213,-2.23415 0.13408,-0.256 0.52141,-0.99955 0.86073,-1.65234 0.33933,-0.65279 0.74785,-1.43824 0.90783,-1.74543 0.15997,-0.3072 0.4584,-0.88319 0.66316,-1.27998 1.00219,-1.94209 1.24878,-2.41686 1.37799,-2.65306 0.077,-0.14079 0.48888,-0.92624 0.91525,-1.74543 0.42637,-0.81918 0.93368,-1.79313 1.12734,-2.16433 0.51362,-0.98444 1.95687,-3.75892 3.02649,-5.8181 0.51196,-0.98558 1.01396,-1.94906 1.11556,-2.14106 0.1016,-0.192 0.5651,-1.08217 1.02999,-1.97815 l 0.84527,-1.62907 -0.004,-4.65448 c -0.004,-5.3539 -0.0558,-7.529214 -0.29936,-12.590354 -0.12736,-2.64632 -0.41115,-6.44231 -0.67654,-9.04932 -0.0649,-0.63799 -0.13819,-1.37107 -0.16277,-1.62907 -0.0246,-0.258 -0.0749,-0.69949 -0.11177,-0.98108 -0.0369,-0.2816 -0.10094,-0.80523 -0.14231,-1.16362 -0.0941,-0.814974 -0.41649,-3.166131 -0.53613,-3.909767 -0.0494,-0.307196 -0.1336,-0.830825 -0.18706,-1.16362 -0.38928,-2.423502 -1.1405,-6.079474 -1.61011,-7.836023 -0.85938,-3.214458 -1.49409,-5.098967 -2.5654,-7.616849 -0.20838,-0.489741 -0.821,-1.6995 -1.16673,-2.303968 -0.83161,-1.453979 -1.56895,-2.439692 -2.65848,-3.554007 -2.49068,-2.547335 -5.6766,-4.288019 -9.96388,-5.443949 -1.64999,-0.444865 -3.70332,-0.819998 -5.6552,-1.033176 -1.69388,-0.185 -4.46615,-0.318109 -6.12064,-0.293878 l -1.04726,0.01534 -1.02398,0.660883 c -0.56319,0.363486 -1.24391,0.799502 -1.51271,0.968926 -0.26879,0.169423 -0.64047,0.406128 -0.82593,0.526009 -0.18547,0.119882 -0.97092,0.622709 -1.74543,1.117393 -0.77452,0.494685 -2.0261,1.294713 -2.78129,1.77784 -0.75519,0.483128 -1.51969,0.970902 -1.69889,1.083943 -0.17919,0.113041 -0.74471,0.473836 -1.25671,0.801767 -0.51199,0.32793 -1.83153,1.1704 -2.93232,1.872155 -1.10078,0.701755 -2.07112,1.331743 -2.1563,1.399974 -0.18215,0.145904 -0.51176,0.362224 -2.18416,1.433449 -0.6847,0.438571 -2.25028,1.441703 -3.47907,2.229182 -1.22878,0.787478 -2.60069,1.666173 -3.04868,1.952654 -0.44799,0.286481 -1.38005,0.883182 -2.07124,1.326001 -0.69119,0.44282 -1.78522,1.142722 -2.43118,1.555338 -1.37205,0.876419 -1.30614,0.834283 -3.60896,2.307353 -0.97867,0.626032 -1.97837,1.266988 -2.22157,1.424347 -0.24319,0.157359 -1.7303,1.109408 -3.30468,2.115664 -3.05731,1.95407 -3.64299,2.329718 -3.67238,2.355436 -0.0102,0.009 0.0811,0.252272 0.20287,0.540698 0.12182,0.288426 0.27007,0.639609 0.32945,0.780407 0.34287,0.812959 0.5146,1.220055 0.62831,1.489433 0.0702,0.166398 0.23288,0.553883 0.36142,0.861079 0.12854,0.307196 1.14863,2.736836 2.26686,5.399196 1.11824,2.66236 2.13862,5.092 2.26751,5.3992 0.36995,0.88167 0.86426,2.05642 1.05761,2.51342 0.0975,0.2304 0.25569,0.60741 0.35158,0.83781 0.0959,0.23039 0.23235,0.55504 0.30323,0.72144 0.0709,0.1664 0.2382,0.56436 0.37184,0.88434 0.13365,0.32 0.30068,0.71796 0.37118,0.88435 0.0705,0.1664 0.20688,0.49105 0.30306,0.72145 0.0962,0.23039 0.23284,0.55504 0.30371,0.72144 0.0709,0.1664 0.23408,0.55388 0.36267,0.86108 0.12859,0.3072 1.14854,2.736834 2.26656,5.399204 1.11803,2.66236 2.19986,5.2386 2.40407,5.725 0.34957,0.8326 0.60265,1.43352 0.85272,2.02469 0.0596,0.1408 0.21745,0.51781 0.35087,0.83781 0.13343,0.32 0.30058,0.71795 0.37146,0.88435 0.0709,0.1664 0.20754,0.49105 0.30372,0.72145 0.0962,0.23039 0.23254,0.55504 0.30305,0.72144 0.0705,0.1664 0.23754,0.56436 0.37118,0.88435 0.13364,0.32 0.3012,0.71795 0.37236,0.88435 0.0711,0.1664 0.23448,0.55389 0.36294,0.86108 0.12847,0.3072 0.81149,1.93444 1.51784,3.61609 0.70634,1.68165 1.28426,3.06773 1.28426,3.08018 0,0.0125 -0.10996,0.0736 -0.24436,0.13579 -0.29599,0.13708 -8.96927,4.26424 -11.47272,5.45927 -0.39007,0.18621 -0.71714,0.32443 -0.7268,0.30716 -0.0217,-0.0387 -0.0292,-0.0565 -1.77525,-4.22043 -0.78365,-1.86877 -1.50488,-3.58627 -1.60274,-3.81667 -0.0979,-0.2304 -0.25638,-0.60741 -0.35228,-0.83781 -0.0959,-0.23039 -0.23265,-0.55504 -0.30391,-0.72144 -0.11264,-0.26304 -0.46501,-1.10265 -1.05484,-2.51342 -0.091,-0.2176 -0.22339,-0.53177 -0.29427,-0.69817 -0.0709,-0.1664 -0.2382,-0.56436 -0.37185,-0.88435 -0.13364,-0.32 -0.30097,-0.71796 -0.37184,-0.88435 -0.0709,-0.1664 -0.20339,-0.48058 -0.29447,-0.69817 -0.0911,-0.2176 -0.3685,-0.87737 -0.61649,-1.46617 -0.24799,-0.58879 -0.50258,-1.1962 -0.56576,-1.34979 -0.0632,-0.1536 -0.17324,-0.41542 -0.24458,-0.58181 -0.0713,-0.1664 -0.2043,-0.48058 -0.29544,-0.69818 -0.0911,-0.21759 -0.80706,-1.92462 -1.59092,-3.79339 -0.78386,-1.86877 -1.4998,-3.5758 -1.59099,-3.7934 -0.0912,-0.21759 -0.22417,-0.53177 -0.29552,-0.69817 -0.0713,-0.1664 -0.18141,-0.42821 -0.24458,-0.58181 -0.0632,-0.1536 -0.31777,-0.76101 -0.56576,-1.3498 -0.24799,-0.588794 -0.52541,-1.248564 -0.61649,-1.466164 -0.0911,-0.2176 -0.22359,-0.53177 -0.29447,-0.69817 -0.0709,-0.1664 -0.23857,-0.56436 -0.37266,-0.88435 -0.13409,-0.32 -0.38483,-0.91693 -0.55718,-1.32653 -0.17236,-0.40959 -0.41367,-0.98557 -0.53623,-1.27997 -0.12257,-0.2944 -0.34701,-0.8285 -0.49875,-1.18689 -0.35857,-0.8469 -0.32307,-0.76241 -2.20043,-5.23629 -0.88624,-2.11198 -1.68168,-4.00751 -1.76765,-4.21231 -0.086,-0.2048 -0.18916,-0.45279 -0.22932,-0.55109 l -0.073,-0.17872 -0.17517,0.10713 c -0.22761,0.13921 -1.74329,1.10305 -2.22314,1.41373 -0.2048,0.13259 -0.83861,0.54002 -1.40847,0.90538 l -1.036124,0.6643 0.13576,0.23925 c 0.0747,0.13159 0.34934,0.62674 0.61039,1.10033 0.261054,0.4736 0.493304,0.88403 0.516114,0.91208 0.0266,0.0328 -0.39734,0.78172 -1.185684,2.09452 -0.67493,1.12393 -4.03893,6.72475 -7.47555,12.446274 -3.43662,5.7215 -7.85131,13.07326 -9.81043,16.33721 -1.95912,3.26395 -3.58581,5.96051 -3.61486,5.99234 -0.0412,0.0451 -0.26034,-0.0833 -0.9933,-0.58181 -0.51727,-0.35183 -1.94093,-1.31952 -3.16369,-2.15041 -2.00802,-1.36451 -7.3287,-4.9843 -7.35303,-5.00245 -0.005,-0.004 1.36723,-2.29991 3.05039,-5.1019 1.68316,-2.80198 5.65334,-9.41173 8.82262,-14.688344 l 5.76233,-9.59384 -0.34656,-0.62274 c -0.19061,-0.34251 -0.792,-1.42913 -1.33642,-2.41471 -0.54442,-0.98559 -1.08933,-1.97001 -1.21092,-2.18761 -0.12158,-0.2176 -0.45679,-0.82501 -0.74491,-1.349799 -0.28811,-0.524793 -0.67538,-1.226455 -0.8606,-1.559251 -0.36193,-0.650304 -1.52708,-2.758768 -2.93219,-5.306106 -0.48011,-0.870388 -1.02459,-1.854811 -1.20996,-2.187606 -0.18537,-0.332795 -0.573,-1.034458 -0.86139,-1.559251 -0.28839,-0.524792 -0.67588,-1.226455 -0.86109,-1.55925 -0.49414,-0.887937 -2.20507,-3.984488 -2.93175,-5.306107 -0.21114,-0.383995 -0.7667,-1.389362 -1.23459,-2.23415 -0.46788,-0.844788 -1.06511,-1.923464 -1.32716,-2.397057 -0.42326,-0.764923 -0.59598,-1.07566 -1.03483,-1.861792 -0.0643,-0.115198 -0.32623,-0.596937 -0.58205,-1.07053 -0.44541,-0.824586 -0.95023,-1.747266 -2.03726,-3.723584 -0.27457,-0.499193 -0.5333,-0.974756 -0.57495,-1.056807 -0.0552,-0.10868 -0.11677,-0.156142 -0.22689,-0.174815 -2.65253,-0.449794 -6.80626,-0.917049 -9.9601,-1.120418 -2.46639,-0.159039 -6.42408,-0.15892 -8.4734,2.55e-4 -1.63487,0.126984 -3.5042,0.367458 -4.94351,0.635939 -1.57944,0.294622 -3.69152,0.894933 -5.03791,1.431913 -3.02781,1.207575 -5.43471,2.954137 -7.09416,5.147864 -2.27743,3.010658 -4.24821,8.371947 -5.59483,15.220149 -0.80709,4.104413 -1.32133,7.916724 -1.82073,13.497993 -0.54963,6.14265 -0.8366,15.111814 -0.72914,22.788984 l 0.0408,2.91437 0.40795,0.78594 c 0.22437,0.43227 0.70103,1.35146 1.05924,2.04265 0.35821,0.69119 0.76129,1.46616 0.89572,1.72216 0.21652,0.41232 0.57583,1.10244 1.7569,3.3745 0.17965,0.34559 0.44709,0.85875 0.59431,1.14034 0.14722,0.2816 0.53435,1.02515 0.86029,1.65234 0.32593,0.62719 0.7242,1.39169 0.88504,1.69889 0.72327,1.38138 1.43855,2.75757 2.09262,4.02612 0.38938,0.75519 0.83438,1.61394 0.98891,1.90834 0.15452,0.2944 0.70472,1.35213 1.22266,2.35051 0.51795,0.99839 1.06258,2.04565 1.21031,2.32724 0.14773,0.2816 0.54577,1.0461 0.88454,1.69889 0.33877,0.65279 0.72623,1.39634 0.86102,1.65234 0.1348,0.25599 0.67944,1.30325 1.21032,2.32724 0.53088,1.02398 1.09654,2.11313 1.25701,2.42033 0.16047,0.30719 0.6945,1.33351 1.18675,2.28069 0.49225,0.94719 1.02674,1.9735 1.18775,2.2807 0.33215,0.63367 1.59151,3.05518 2.96531,5.70173 0.51161,0.98559 1.05084,2.02238 1.1983,2.30397 0.14746,0.2816 0.69221,1.32886 1.21057,2.32724 0.51835,0.99839 1.0637,2.04565 1.21189,2.32724 0.31059,0.59022 1.47122,2.82146 3.26853,6.28355 0.69107,1.33118 1.36649,2.62978 1.50094,2.88578 0.13444,0.25599 0.54295,1.04144 0.90779,1.74543 0.36484,0.70399 0.76322,1.46848 0.88528,1.69888 0.21638,0.40844 0.7627,1.45882 3.2924,6.33009 0.678,1.30558 1.35325,2.60418 1.50055,2.88578 0.1473,0.2816 0.54508,1.04609 0.88396,1.69889 0.33887,0.65279 0.72666,1.39634 0.86175,1.65234 0.24248,0.45951 0.90414,1.73157 3.31677,6.37663 0.67812,1.30558 1.34288,2.58324 1.47726,2.83924 0.13438,0.25599 0.54274,1.04144 0.90748,1.74543 0.36474,0.70399 0.75224,1.44754 0.86112,1.65234 0.10889,0.20479 0.64414,1.23111 1.18946,2.28069 0.54532,1.04959 1.16582,2.24346 1.37888,2.65305 0.21306,0.4096 0.63355,1.22151 0.93442,1.80425 0.30087,0.58275 0.57033,1.05401 0.5988,1.04726 0.0285,-0.007 0.8977,-0.76797 1.93161,-1.69161 z"
       id="path1" /></g></svg>
